<svg width="101" height="18" viewBox="0 0 101 18" fill="none" xmlns="http://www.w3.org/2000/svg">
<path d="M1.21843 16.4708C0.334911 15.1952 -0.0875384 13.6692 0.0177371 12.1337V5.86633C-0.0937138 4.31952 0.32235 2.78017 1.20127 1.48751C1.99601 0.490295 3.35393 -0.00552459 5.27503 4.64252e-05C7.19613 0.00561744 8.49687 0.442942 9.17726 1.31202C10.0069 2.389 10.4117 3.7206 10.3179 5.0641V6.53485H6.76731V4.93875C6.76252 4.51879 6.72526 4.09978 6.65582 3.68527C6.61289 3.3852 6.47149 3.10671 6.25273 2.8914C6.11769 2.77856 5.96091 2.6931 5.79156 2.64001C5.62221 2.58692 5.44369 2.56727 5.26645 2.58221C5.01191 2.5452 4.75185 2.58551 4.52166 2.69765C4.29147 2.8098 4.10233 2.98833 3.98 3.20895C3.7545 3.79581 3.65525 4.42158 3.68841 5.04739V13.0028C3.64928 13.6327 3.7639 14.2628 4.02288 14.8412C4.14662 15.0499 4.33024 15.2188 4.55117 15.3272C4.7721 15.4356 5.02071 15.4787 5.26645 15.4513C5.50792 15.4845 5.75401 15.4427 5.96962 15.3316C6.18523 15.2206 6.35934 15.046 6.46714 14.8329C6.67459 14.2449 6.76483 13.6238 6.733 13.0028V11.3315H10.2836V12.7772C10.3881 14.1405 10.0164 15.4982 9.22872 16.6295C8.474 17.5487 7.1704 18 5.31791 18C3.46542 18 2.01602 17.4986 1.21843 16.4708Z" fill="#111111"/>
<path d="M15.1555 0.242386H19.2207L22.6513 17.7911H19.2722L18.6633 13.9137H15.8159L15.1298 17.766H11.6993L15.1555 0.242386ZM18.2859 11.7075L17.2053 4.65463L16.1332 11.7075H18.2859Z" fill="#111111"/>
<path d="M25.2848 2.88305H22.506V0.242386H31.6999V2.88305H28.9554V17.766H25.2762L25.2848 2.88305Z" fill="#111111"/>
<path d="M38.9133 0.242386H45.8859V2.06411H41.4262V7.85518H45.0454V9.58498H41.4262V16.0111H45.9288V17.766H38.9133V0.242386Z" fill="#444444"/>
<path d="M47.9532 0.242386H49.6685L54.8143 11.883V0.242386H56.9069V17.7911H55.3032L50.1574 5.82454V17.766H48.0304L47.9532 0.242386Z" fill="#444444"/>
<path d="M59.6777 0.242386H66.6417V2.06411H62.182V7.85518H65.8355V9.58498H62.2163V16.0111H66.6932V17.766H59.6777V0.242386Z" fill="#444444"/>
<path d="M68.709 0.242386H72.3282C73.7545 0.130556 75.1748 0.518778 76.3333 1.33709C77.191 2.06411 77.6112 3.25073 77.6112 4.89697C77.6112 7.12537 76.8708 8.48749 75.3899 8.98331L77.9628 17.766H75.5272L73.1687 9.54319H71.2218V17.766H68.709V0.242386ZM72.1395 7.76326C72.9657 7.84115 73.7919 7.61455 74.4551 7.12816C74.7246 6.81737 74.9261 6.45614 75.047 6.06669C75.1679 5.67724 75.2058 5.26779 75.1584 4.86354C75.1756 4.2966 75.0914 3.73106 74.9097 3.19224C74.8359 2.99356 74.722 2.81132 74.5747 2.6563C74.4274 2.50128 74.2497 2.37663 74.052 2.28973C73.4953 2.06717 72.8949 1.96729 72.2939 1.99726H71.1875V7.79668L72.1395 7.76326Z" fill="#444444"/>
<path d="M82.1079 16.3985C81.2882 15.0503 80.9083 13.4912 81.0187 11.9278V6.07822C80.9892 4.94939 81.1337 3.82263 81.4475 2.73561C81.6952 1.91839 82.2217 1.20796 82.9398 0.721692C83.8069 0.212566 84.8105 -0.0319168 85.8215 0.0197435C86.4754 -0.0408511 87.135 0.0384334 87.7542 0.252055C88.3734 0.465676 88.9373 0.80848 89.4064 1.25651C90.2292 2.37966 90.6181 3.7501 90.5042 5.12558V5.77739H88.1457V5.23421C88.1617 4.58455 88.11 3.93498 87.9913 3.2955C87.9132 2.88567 87.6807 2.51908 87.3395 2.26765C86.8943 2.01164 86.3802 1.89225 85.8644 1.92503C85.3042 1.87833 84.7473 2.0462 84.3121 2.393C83.9564 2.72184 83.7239 3.15722 83.6517 3.62976C83.543 4.31812 83.4943 5.01418 83.5059 5.71054V12.2203C83.4378 13.2095 83.6112 14.2003 84.0119 15.1116C84.2446 15.3919 84.54 15.6166 84.8755 15.7686C85.211 15.9205 85.5777 15.9958 85.9476 15.9885C86.3175 15.9813 86.6808 15.8917 87.0097 15.7267C87.3387 15.5617 87.6245 15.3256 87.8455 15.0364C88.2588 14.0726 88.4378 13.0287 88.3687 11.9863V10.7495H86.0873V9.01972H90.6328V17.6938H89.0805L88.8318 15.6799C88.6352 16.3489 88.2121 16.9336 87.6313 17.3386C87.0505 17.7437 86.3462 17.9455 85.6328 17.9111C84.9621 17.9687 84.2873 17.8602 83.671 17.5958C83.0548 17.3314 82.5171 16.9196 82.1079 16.3985Z" fill="#444444"/>
<path d="M94.7307 11.5822L90.8456 0.242386H93.1784L95.9314 8.69919L98.6415 0.242386H101L97.1407 11.5822V17.766H94.7393L94.7307 11.5822Z" fill="#444444"/>
</svg>
